<svg xmlns="http://www.w3.org/2000/svg" width="256" height="256" viewBox="0 0 100 100"><path fill="#000000" d="M34.88 72.41L27.50 72.41L27.50 28.67L33.44 28.67L34.07 34.43L34.25 34.43Q35.96 31.37 38.21 29.48Q40.46 27.59 44.24 27.59L44.24 27.59Q50.63 27.59 52.52 35.15L52.52 35.15Q54.41 31.64 56.70 29.61Q59 27.59 62.78 27.59L62.78 27.59Q67.37 27.59 69.94 31.05Q72.50 34.52 72.50 41.09L72.50 41.09L72.50 72.41L65.12 72.41L65.12 41.63Q65.12 33.98 60.44 33.98L60.44 33.98Q58.10 33.98 56.66 35.64Q55.22 37.31 53.42 40.73L53.42 40.73L53.42 72.41L46.58 72.41L46.58 41.63Q46.58 37.85 45.55 35.91Q44.51 33.98 42.08 33.98L42.08 33.98Q39.74 33.98 38.12 35.64Q36.50 37.31 34.88 40.73L34.88 40.73L34.88 72.41Z"></path></svg>